<svg version="1.1" xmlns="http://www.w3.org/2000/svg" viewBox="-307.2 -997.2 2526.9 1557.9"><desc>Created with Snap</desc><defs></defs><g><g><g transform="matrix(0.5,0,0,-0.5,0,0)"><path d="M590 1059Q590 1051 587 1043Q585 1036 582 1030Q572 1004 561 979Q550 954 541 928Q505 815 485 675Q466 536 461 384Q484 382 506 380Q528 379 551 379Q597 379 650 383Q703 387 754 393Q805 400 849 409Q894 418 924 428L936 416Q846 360 724 330Q602 300 459 289Q457 124 468 -37Q479 -197 500 -338L483 -346Q454 -280 433 -204Q412 -128 396 -47Q381 34 371 118Q362 202 356 284Q336 283 315 283Q295 283 274 283Q256 283 232 284Q209 286 188 292Q167 299 153 313Q139 328 139 354Q139 371 147 382Q156 394 168 401Q181 409 196 412Q212 416 227 416Q235 416 242 415Q250 414 258 412Q281 409 304 405Q327 402 350 399Q348 437 348 474Q348 512 348 547Q348 581 349 626Q350 672 354 723Q359 774 367 825Q376 877 391 923Q406 969 429 1005Q452 1041 485 1061Q502 1070 521 1078Q541 1087 559 1087Q590 1087 590 1059ZM1309 1372L1317 1354Q1244 1298 1147 1257Q1050 1217 944 1190Q838 1163 732 1150Q626 1137 535 1137Q507 1137 464 1140Q421 1143 371 1149Q322 1155 270 1165Q218 1176 171 1190Q125 1205 89 1225Q53 1245 35 1270Q24 1287 12 1308Q0 1330 0 1352Q0 1380 31 1380Q39 1380 45 1379Q51 1378 59 1376Q97 1364 131 1351Q166 1338 203 1327Q324 1299 446 1285Q569 1272 694 1272Q846 1272 1006 1295Q1166 1318 1309 1372ZM2105 -106L2116 -127Q2057 -168 1975 -203Q1894 -237 1802 -262Q1711 -287 1616 -301Q1521 -315 1436 -315Q1403 -315 1361 -312Q1320 -309 1277 -300Q1235 -291 1195 -276Q1155 -260 1125 -236Q1114 -246 1104 -255Q1094 -263 1083 -272L1071 -250Q1079 -240 1085 -231Q1092 -221 1100 -212Q1084 -192 1075 -169Q1067 -146 1067 -117Q1067 -104 1072 -95Q1078 -86 1092 -86Q1097 -86 1102 -87Q1107 -88 1112 -90Q1128 -96 1143 -103Q1159 -109 1175 -114Q1279 24 1373 161Q1468 298 1556 440Q1614 535 1670 625Q1726 716 1776 808Q1826 901 1869 998Q1913 1095 1946 1202L1946 1203Q1871 1206 1794 1206Q1719 1206 1639 1203Q1560 1200 1479 1190Q1398 1181 1318 1164Q1238 1147 1162 1119Q1157 1117 1152 1115Q1147 1114 1141 1114Q1124 1114 1119 1126Q1114 1139 1114 1153Q1114 1176 1122 1200Q1130 1224 1141 1245Q1152 1268 1176 1285Q1200 1303 1231 1315Q1262 1328 1297 1336Q1333 1344 1368 1348Q1403 1353 1434 1354Q1465 1356 1487 1356Q1537 1356 1596 1351Q1655 1346 1717 1336Q1779 1327 1842 1313Q1906 1300 1965 1283Q1965 1284 1965 1284Q1966 1285 1966 1286Q1967 1292 1969 1301Q1972 1311 1975 1319Q1979 1327 1985 1333Q1992 1339 2001 1339Q2012 1339 2023 1331Q2034 1323 2043 1310Q2053 1297 2061 1280Q2069 1263 2075 1246Q2117 1230 2154 1210L2148 1188Q2133 1190 2118 1191Q2103 1192 2088 1193Q2088 1189 2088 1186Q2089 1183 2089 1180Q2089 1128 2067 1064Q2045 1000 2014 934Q1983 869 1948 809Q1913 750 1888 707Q1829 607 1754 497Q1679 387 1594 277Q1510 167 1418 62Q1327 -43 1236 -133Q1316 -152 1400 -157Q1484 -162 1575 -162Q1708 -162 1842 -149Q1977 -135 2105 -106ZM3821 -444L3825 -464Q3793 -489 3753 -498Q3713 -507 3671 -507Q3522 -507 3409 -462Q3296 -417 3212 -339Q3129 -261 3073 -156Q3017 -50 2982 71Q2948 193 2931 323Q2915 454 2911 583Q2908 712 2914 833Q2921 954 2932 1055Q2874 981 2822 877Q2770 773 2725 654Q2681 535 2643 409Q2605 284 2574 165Q2544 46 2520 -58Q2497 -162 2481 -236Q2479 -244 2476 -257Q2474 -270 2468 -282Q2463 -294 2454 -303Q2445 -311 2432 -311Q2420 -311 2409 -304Q2398 -296 2389 -286Q2380 -275 2373 -263Q2367 -250 2364 -239Q2334 -142 2319 -31Q2305 81 2299 195Q2294 310 2294 423Q2295 536 2295 637Q2295 749 2298 861Q2301 973 2309 1085Q2312 1125 2317 1174Q2323 1223 2340 1265Q2357 1307 2389 1335Q2421 1364 2477 1364Q2491 1364 2500 1357Q2510 1351 2510 1335L2510 1327Q2497 1208 2486 1093Q2475 979 2466 865Q2458 751 2453 635Q2449 520 2449 399Q2449 281 2454 162Q2459 44 2471 -74Q2508 96 2548 258Q2589 420 2641 575Q2693 731 2761 879Q2829 1027 2920 1169Q2928 1182 2940 1199Q2953 1217 2968 1232Q2984 1248 3001 1259Q3018 1270 3036 1270Q3058 1270 3070 1250Q3083 1230 3088 1203Q3094 1177 3095 1150Q3096 1123 3096 1108Q3089 1014 3079 897Q3070 780 3067 652Q3064 524 3070 392Q3077 260 3101 136Q3125 13 3171 -96Q3217 -204 3292 -285Q3368 -366 3476 -413Q3585 -460 3735 -460Q3756 -460 3778 -457Q3801 -453 3821 -444Z" fill="#43aa8b" style=""></path></g></g></g></svg>